solid OpenSCAD_Model
  facet normal 0 1 0
    outer loop
      vertex 22 2 30.1
      vertex 18 2 30
      vertex 8 2 30.1
    endloop
  endfacet
  facet normal 0 1 -0
    outer loop
      vertex 28 2 20
      vertex 22 2 30.1
      vertex 32 2 20.1
    endloop
  endfacet
  facet normal 0 1 0
    outer loop
      vertex 22 2 30.1
      vertex 28 2 20
      vertex 18 2 30
    endloop
  endfacet
  facet normal 0 1 -0
    outer loop
      vertex 32 2 0
      vertex 28 2 20
      vertex 32 2 20.1
    endloop
  endfacet
  facet normal 0 1 0
    outer loop
      vertex 28 2 20
      vertex 32 2 0
      vertex 28 2 0
    endloop
  endfacet
  facet normal 0 1 -0
    outer loop
      vertex 12 2 30
      vertex 8 2 30.1
      vertex 18 2 30
    endloop
  endfacet
  facet normal 0 1 0
    outer loop
      vertex 2 2 20
      vertex 8 2 30.1
      vertex 12 2 30
    endloop
  endfacet
  facet normal 0 1 0
    outer loop
      vertex 8 2 30.1
      vertex 2 2 20
      vertex -2 2 20.1
    endloop
  endfacet
  facet normal 0 1 0
    outer loop
      vertex -2 2 0
      vertex 2 2 20
      vertex 2 2 0
    endloop
  endfacet
  facet normal 0 1 0
    outer loop
      vertex 2 2 20
      vertex -2 2 0
      vertex -2 2 20.1
    endloop
  endfacet
  facet normal 1 -0 0
    outer loop
      vertex 2 -2 20
      vertex 2 2 0
      vertex 2 2 20
    endloop
  endfacet
  facet normal 1 0 0
    outer loop
      vertex 2 2 0
      vertex 2 -2 20
      vertex 2 -2 0
    endloop
  endfacet
  facet normal -1 0 0
    outer loop
      vertex -2 -2 0
      vertex -2 2 20.1
      vertex -2 2 0
    endloop
  endfacet
  facet normal -1 -0 0
    outer loop
      vertex -2 2 20.1
      vertex -2 -2 0
      vertex -2 -2 20.1
    endloop
  endfacet
  facet normal 0 0 -1
    outer loop
      vertex -2 -2 0
      vertex 2 2 0
      vertex 2 -2 0
    endloop
  endfacet
  facet normal -0 0 -1
    outer loop
      vertex 2 2 0
      vertex -2 -2 0
      vertex -2 2 0
    endloop
  endfacet
  facet normal 0 -1 0
    outer loop
      vertex 8 -2 30.1
      vertex 12 -2 30
      vertex 22 -2 30.1
    endloop
  endfacet
  facet normal 0 -1 0
    outer loop
      vertex 2 -2 20
      vertex 8 -2 30.1
      vertex -2 -2 20.1
    endloop
  endfacet
  facet normal 0 -1 -0
    outer loop
      vertex 8 -2 30.1
      vertex 2 -2 20
      vertex 12 -2 30
    endloop
  endfacet
  facet normal 0 -1 0
    outer loop
      vertex -2 -2 0
      vertex 2 -2 20
      vertex -2 -2 20.1
    endloop
  endfacet
  facet normal 0 -1 -0
    outer loop
      vertex 2 -2 20
      vertex -2 -2 0
      vertex 2 -2 0
    endloop
  endfacet
  facet normal 0 -1 0
    outer loop
      vertex 18 -2 30
      vertex 22 -2 30.1
      vertex 12 -2 30
    endloop
  endfacet
  facet normal 0 -1 0
    outer loop
      vertex 28 -2 20
      vertex 22 -2 30.1
      vertex 18 -2 30
    endloop
  endfacet
  facet normal 0 -1 0
    outer loop
      vertex 22 -2 30.1
      vertex 28 -2 20
      vertex 32 -2 20.1
    endloop
  endfacet
  facet normal 0 -1 0
    outer loop
      vertex 32 -2 0
      vertex 28 -2 20
      vertex 28 -2 0
    endloop
  endfacet
  facet normal 0 -1 0
    outer loop
      vertex 28 -2 20
      vertex 32 -2 0
      vertex 32 -2 20.1
    endloop
  endfacet
  facet normal 0.707107 0 -0.707107
    outer loop
      vertex 12 -2 30
      vertex 2 2 20
      vertex 12 2 30
    endloop
  endfacet
  facet normal 0.707107 0 -0.707107
    outer loop
      vertex 2 2 20
      vertex 12 -2 30
      vertex 2 -2 20
    endloop
  endfacet
  facet normal -0 0 1
    outer loop
      vertex 8 2 30.1
      vertex 22 -2 30.1
      vertex 22 2 30.1
    endloop
  endfacet
  facet normal 0 0 1
    outer loop
      vertex 22 -2 30.1
      vertex 8 2 30.1
      vertex 8 -2 30.1
    endloop
  endfacet
  facet normal -0.707107 0 0.707107
    outer loop
      vertex -2 -2 20.1
      vertex 8 2 30.1
      vertex -2 2 20.1
    endloop
  endfacet
  facet normal -0.707107 0 0.707107
    outer loop
      vertex 8 2 30.1
      vertex -2 -2 20.1
      vertex 8 -2 30.1
    endloop
  endfacet
  facet normal 0 0 -1
    outer loop
      vertex 12 -2 30
      vertex 18 2 30
      vertex 18 -2 30
    endloop
  endfacet
  facet normal -0 0 -1
    outer loop
      vertex 18 2 30
      vertex 12 -2 30
      vertex 12 2 30
    endloop
  endfacet
  facet normal -0.707107 0 -0.707107
    outer loop
      vertex 28 -2 20
      vertex 18 2 30
      vertex 28 2 20
    endloop
  endfacet
  facet normal -0.707107 -0 -0.707107
    outer loop
      vertex 18 2 30
      vertex 28 -2 20
      vertex 18 -2 30
    endloop
  endfacet
  facet normal 1 -0 0
    outer loop
      vertex 32 -2 20.1
      vertex 32 2 0
      vertex 32 2 20.1
    endloop
  endfacet
  facet normal 1 0 0
    outer loop
      vertex 32 2 0
      vertex 32 -2 20.1
      vertex 32 -2 0
    endloop
  endfacet
  facet normal 0.707107 -0 0.707107
    outer loop
      vertex 22 -2 30.1
      vertex 32 2 20.1
      vertex 22 2 30.1
    endloop
  endfacet
  facet normal 0.707107 0 0.707107
    outer loop
      vertex 32 2 20.1
      vertex 22 -2 30.1
      vertex 32 -2 20.1
    endloop
  endfacet
  facet normal 0 0 -1
    outer loop
      vertex 28 -2 0
      vertex 32 2 0
      vertex 32 -2 0
    endloop
  endfacet
  facet normal -0 0 -1
    outer loop
      vertex 32 2 0
      vertex 28 -2 0
      vertex 28 2 0
    endloop
  endfacet
  facet normal -1 0 0
    outer loop
      vertex 28 -2 0
      vertex 28 2 20
      vertex 28 2 0
    endloop
  endfacet
  facet normal -1 -0 0
    outer loop
      vertex 28 2 20
      vertex 28 -2 0
      vertex 28 -2 20
    endloop
  endfacet
endsolid OpenSCAD_Model
