solid OpenSCAD_Model
  facet normal 0 -0 1
    outer loop
      vertex -38 -0 20
      vertex -37.7004 4.76266 20
      vertex -40 -0 20
    endloop
  endfacet
  facet normal 0 0 1
    outer loop
      vertex -37.7004 4.76266 20
      vertex -39.6846 5.01333 20
      vertex -40 -0 20
    endloop
  endfacet
  facet normal 0.872838 -0.0549172 0.48491
    outer loop
      vertex -28 -0 2
      vertex -27.7792 3.50933 2
      vertex -38 -0 20
    endloop
  endfacet
  facet normal 0.872838 -0.0549068 0.484912
    outer loop
      vertex -27.7792 3.50933 2
      vertex -37.7004 4.76266 20
      vertex -38 -0 20
    endloop
  endfacet
  facet normal 0 0 1
    outer loop
      vertex -0 -0 2
      vertex -27.7792 3.50933 2
      vertex -28 -0 2
    endloop
  endfacet
  facet normal 0 0 -1
    outer loop
      vertex -30 -0 0
      vertex -29.7634 3.76 0
      vertex -0 -0 0
    endloop
  endfacet
  facet normal -0.893015 0.0561816 -0.446507
    outer loop
      vertex -40 -0 20
      vertex -39.6846 5.01333 20
      vertex -30 -0 0
    endloop
  endfacet
  facet normal -0.893013 0.0561933 -0.446509
    outer loop
      vertex -39.6846 5.01333 20
      vertex -29.7634 3.76 0
      vertex -30 -0 0
    endloop
  endfacet
  facet normal 0 -0 1
    outer loop
      vertex -37.7004 4.76266 20
      vertex -36.8062 9.45022 20
      vertex -39.6846 5.01333 20
    endloop
  endfacet
  facet normal 0 0 1
    outer loop
      vertex -36.8062 9.45022 20
      vertex -38.7433 9.9476 20
      vertex -39.6846 5.01333 20
    endloop
  endfacet
  facet normal 0.859071 -0.163881 0.484912
    outer loop
      vertex -27.7792 3.50933 2
      vertex -27.1203 6.96332 2
      vertex -37.7004 4.76266 20
    endloop
  endfacet
  facet normal 0.859072 -0.163877 0.484913
    outer loop
      vertex -27.1203 6.96332 2
      vertex -36.8062 9.45022 20
      vertex -37.7004 4.76266 20
    endloop
  endfacet
  facet normal 0 0 1
    outer loop
      vertex -0 -0 2
      vertex -27.1203 6.96332 2
      vertex -27.7792 3.50933 2
    endloop
  endfacet
  facet normal 0 0 -1
    outer loop
      vertex -29.7634 3.76 0
      vertex -29.0575 7.4607 0
      vertex -0 -0 0
    endloop
  endfacet
  facet normal -0.878929 0.167671 -0.446509
    outer loop
      vertex -39.6846 5.01333 20
      vertex -38.7433 9.9476 20
      vertex -29.7634 3.76 0
    endloop
  endfacet
  facet normal -0.878934 0.167655 -0.446506
    outer loop
      vertex -38.7433 9.9476 20
      vertex -29.0575 7.4607 0
      vertex -29.7634 3.76 0
    endloop
  endfacet
  facet normal 0 -0 1
    outer loop
      vertex -36.8062 9.45022 20
      vertex -35.3315 13.9887 20
      vertex -38.7433 9.9476 20
    endloop
  endfacet
  facet normal 0 0 1
    outer loop
      vertex -35.3315 13.9887 20
      vertex -37.1911 14.725 20
      vertex -38.7433 9.9476 20
    endloop
  endfacet
  facet normal 0.831758 -0.270257 0.484912
    outer loop
      vertex -27.1203 6.96332 2
      vertex -26.0337 10.3075 2
      vertex -36.8062 9.45022 20
    endloop
  endfacet
  facet normal 0.831756 -0.270265 0.484911
    outer loop
      vertex -26.0337 10.3075 2
      vertex -35.3315 13.9887 20
      vertex -36.8062 9.45022 20
    endloop
  endfacet
  facet normal 0 0 1
    outer loop
      vertex -0 -0 2
      vertex -26.0337 10.3075 2
      vertex -27.1203 6.96332 2
    endloop
  endfacet
  facet normal 0 0 -1
    outer loop
      vertex -29.0575 7.4607 0
      vertex -27.8933 11.0437 0
      vertex -0 -0 0
    endloop
  endfacet
  facet normal -0.85099 0.276491 -0.446506
    outer loop
      vertex -38.7433 9.9476 20
      vertex -37.1911 14.725 20
      vertex -29.0575 7.4607 0
    endloop
  endfacet
  facet normal -0.850985 0.276505 -0.446509
    outer loop
      vertex -37.1911 14.725 20
      vertex -27.8933 11.0437 0
      vertex -29.0575 7.4607 0
    endloop
  endfacet
  facet normal 0 -0 1
    outer loop
      vertex -35.3315 13.9887 20
      vertex -33.2997 18.3066 20
      vertex -37.1911 14.725 20
    endloop
  endfacet
  facet normal 0 0 1
    outer loop
      vertex -33.2997 18.3066 20
      vertex -35.0523 19.2701 20
      vertex -37.1911 14.725 20
    endloop
  endfacet
  facet normal 0.791333 -0.372361 0.484911
    outer loop
      vertex -26.0337 10.3075 2
      vertex -24.5366 13.4891 2
      vertex -35.3315 13.9887 20
    endloop
  endfacet
  facet normal 0.791332 -0.372364 0.48491
    outer loop
      vertex -24.5366 13.4891 2
      vertex -33.2997 18.3066 20
      vertex -35.3315 13.9887 20
    endloop
  endfacet
  facet normal 0 0 1
    outer loop
      vertex -0 -0 2
      vertex -24.5366 13.4891 2
      vertex -26.0337 10.3075 2
    endloop
  endfacet
  facet normal 0 0 -1
    outer loop
      vertex -27.8933 11.0437 0
      vertex -26.2892 14.4526 0
      vertex -0 -0 0
    endloop
  endfacet
  facet normal -0.809618 0.380984 -0.446509
    outer loop
      vertex -37.1911 14.725 20
      vertex -35.0523 19.2701 20
      vertex -27.8933 11.0437 0
    endloop
  endfacet
  facet normal -0.809622 0.380977 -0.446508
    outer loop
      vertex -35.0523 19.2701 20
      vertex -26.2892 14.4526 0
      vertex -27.8933 11.0437 0
    endloop
  endfacet
  facet normal 0 -0 1
    outer loop
      vertex -33.2997 18.3066 20
      vertex -30.7426 22.3358 20
      vertex -35.0523 19.2701 20
    endloop
  endfacet
  facet normal 0 0 1
    outer loop
      vertex -30.7426 22.3358 20
      vertex -32.3607 23.5114 20
      vertex -35.0523 19.2701 20
    endloop
  endfacet
  facet normal 0.738421 -0.468611 0.484911
    outer loop
      vertex -24.5366 13.4891 2
      vertex -22.6525 16.458 2
      vertex -33.2997 18.3066 20
    endloop
  endfacet
  facet normal 0.738413 -0.468628 0.484907
    outer loop
      vertex -22.6525 16.458 2
      vertex -30.7426 22.3358 20
      vertex -33.2997 18.3066 20
    endloop
  endfacet
  facet normal 0 0 1
    outer loop
      vertex -0 -0 2
      vertex -22.6525 16.458 2
      vertex -24.5366 13.4891 2
    endloop
  endfacet
  facet normal 0 0 -1
    outer loop
      vertex -26.2892 14.4526 0
      vertex -24.2705 17.6336 0
      vertex -0 -0 0
    endloop
  endfacet
  facet normal -0.755489 0.479446 -0.446508
    outer loop
      vertex -35.0523 19.2701 20
      vertex -32.3607 23.5114 20
      vertex -26.2892 14.4526 0
    endloop
  endfacet
  facet normal -0.75549 0.479443 -0.446507
    outer loop
      vertex -32.3607 23.5114 20
      vertex -24.2705 17.6336 0
      vertex -26.2892 14.4526 0
    endloop
  endfacet
  facet normal 0 -0 1
    outer loop
      vertex -30.7426 22.3358 20
      vertex -27.7008 26.0128 20
      vertex -32.3607 23.5114 20
    endloop
  endfacet
  facet normal 0 0 1
    outer loop
      vertex -27.7008 26.0128 20
      vertex -29.1587 27.3819 20
      vertex -32.3607 23.5114 20
    endloop
  endfacet
  facet normal 0.673856 -0.55748 0.484907
    outer loop
      vertex -22.6525 16.458 2
      vertex -20.4111 19.1673 2
      vertex -30.7426 22.3358 20
    endloop
  endfacet
  facet normal 0.67387 -0.557459 0.484911
    outer loop
      vertex -20.4111 19.1673 2
      vertex -27.7008 26.0128 20
      vertex -30.7426 22.3358 20
    endloop
  endfacet
  facet normal 0 0 1
    outer loop
      vertex -0 -0 2
      vertex -20.4111 19.1673 2
      vertex -22.6525 16.458 2
    endloop
  endfacet
  facet normal 0 0 -1
    outer loop
      vertex -24.2705 17.6336 0
      vertex -21.8691 20.5364 0
      vertex -0 -0 0
    endloop
  endfacet
  facet normal -0.689436 0.570359 -0.446507
    outer loop
      vertex -32.3607 23.5114 20
      vertex -29.1587 27.3819 20
      vertex -24.2705 17.6336 0
    endloop
  endfacet
  facet normal -0.689441 0.570354 -0.446505
    outer loop
      vertex -29.1587 27.3819 20
      vertex -21.8691 20.5364 0
      vertex -24.2705 17.6336 0
    endloop
  endfacet
  facet normal 0 -0 1
    outer loop
      vertex -27.7008 26.0128 20
      vertex -24.2221 29.2795 20
      vertex -29.1587 27.3819 20
    endloop
  endfacet
  facet normal 0 0 1
    outer loop
      vertex -24.2221 29.2795 20
      vertex -25.497 30.8205 20
      vertex -29.1587 27.3819 20
    endloop
  endfacet
  facet normal 0.598692 -0.637517 0.484912
    outer loop
      vertex -20.4111 19.1673 2
      vertex -17.8479 21.5744 2
      vertex -27.7008 26.0128 20
    endloop
  endfacet
  facet normal 0.598679 -0.637532 0.484908
    outer loop
      vertex -17.8479 21.5744 2
      vertex -24.2221 29.2795 20
      vertex -27.7008 26.0128 20
    endloop
  endfacet
  facet normal 0 0 1
    outer loop
      vertex -0 -0 2
      vertex -17.8479 21.5744 2
      vertex -20.4111 19.1673 2
    endloop
  endfacet
  facet normal 0 0 -1
    outer loop
      vertex -21.8691 20.5364 0
      vertex -19.1227 23.1154 0
      vertex -0 -0 0
    endloop
  endfacet
  facet normal -0.612523 0.652264 -0.446506
    outer loop
      vertex -29.1587 27.3819 20
      vertex -25.497 30.8205 20
      vertex -21.8691 20.5364 0
    endloop
  endfacet
  facet normal -0.612514 0.652271 -0.446508
    outer loop
      vertex -25.497 30.8205 20
      vertex -19.1227 23.1154 0
      vertex -21.8691 20.5364 0
    endloop
  endfacet
  facet normal 0 -0 1
    outer loop
      vertex -24.2221 29.2795 20
      vertex -20.3614 32.0845 20
      vertex -25.497 30.8205 20
    endloop
  endfacet
  facet normal 0 0 1
    outer loop
      vertex -20.3614 32.0845 20
      vertex -21.4331 33.7731 20
      vertex -25.497 30.8205 20
    endloop
  endfacet
  facet normal 0.514045 -0.707546 0.484908
    outer loop
      vertex -17.8479 21.5744 2
      vertex -15.0031 23.6412 2
      vertex -24.2221 29.2795 20
    endloop
  endfacet
  facet normal 0.51406 -0.707533 0.484911
    outer loop
      vertex -15.0031 23.6412 2
      vertex -20.3614 32.0845 20
      vertex -24.2221 29.2795 20
    endloop
  endfacet
  facet normal 0 0 1
    outer loop
      vertex -0 -0 2
      vertex -15.0031 23.6412 2
      vertex -17.8479 21.5744 2
    endloop
  endfacet
  facet normal 0 0 -1
    outer loop
      vertex -19.1227 23.1154 0
      vertex -16.0748 25.3298 0
      vertex -0 -0 0
    endloop
  endfacet
  facet normal -0.525939 0.723892 -0.446508
    outer loop
      vertex -25.497 30.8205 20
      vertex -21.4331 33.7731 20
      vertex -19.1227 23.1154 0
    endloop
  endfacet
  facet normal -0.525934 0.723895 -0.446509
    outer loop
      vertex -21.4331 33.7731 20
      vertex -16.0748 25.3298 0
      vertex -19.1227 23.1154 0
    endloop
  endfacet
  facet normal 0 -0 1
    outer loop
      vertex -20.3614 32.0845 20
      vertex -16.1796 34.3834 20
      vertex -21.4331 33.7731 20
    endloop
  endfacet
  facet normal 0 0 1
    outer loop
      vertex -16.1796 34.3834 20
      vertex -17.0312 36.1931 20
      vertex -21.4331 33.7731 20
    endloop
  endfacet
  facet normal 0.421332 -0.766381 0.484912
    outer loop
      vertex -15.0031 23.6412 2
      vertex -11.9218 25.3352 2
      vertex -20.3614 32.0845 20
    endloop
  endfacet
  facet normal 0.421316 -0.766392 0.484908
    outer loop
      vertex -11.9218 25.3352 2
      vertex -16.1796 34.3834 20
      vertex -20.3614 32.0845 20
    endloop
  endfacet
  facet normal 0 0 1
    outer loop
      vertex -0 -0 2
      vertex -11.9218 25.3352 2
      vertex -15.0031 23.6412 2
    endloop
  endfacet
  facet normal 0 0 -1
    outer loop
      vertex -16.0748 25.3298 0
      vertex -12.7734 27.1448 0
      vertex -0 -0 0
    endloop
  endfacet
  facet normal -0.431068 0.784099 -0.446509
    outer loop
      vertex -21.4331 33.7731 20
      vertex -17.0312 36.1931 20
      vertex -16.0748 25.3298 0
    endloop
  endfacet
  facet normal -0.431071 0.784097 -0.446508
    outer loop
      vertex -17.0312 36.1931 20
      vertex -12.7734 27.1448 0
      vertex -16.0748 25.3298 0
    endloop
  endfacet
  facet normal 0 -0 1
    outer loop
      vertex -16.1796 34.3834 20
      vertex -11.7426 36.1401 20
      vertex -17.0312 36.1931 20
    endloop
  endfacet
  facet normal 0 0 1
    outer loop
      vertex -11.7426 36.1401 20
      vertex -12.3607 38.0423 20
      vertex -17.0312 36.1931 20
    endloop
  endfacet
  facet normal 0.321946 -0.813152 0.484908
    outer loop
      vertex -11.9218 25.3352 2
      vertex -8.65248 26.6296 2
      vertex -16.1796 34.3834 20
    endloop
  endfacet
  facet normal 0.321944 -0.813153 0.484907
    outer loop
      vertex -8.65248 26.6296 2
      vertex -11.7426 36.1401 20
      vertex -16.1796 34.3834 20
    endloop
  endfacet
  facet normal 0 0 1
    outer loop
      vertex -0 -0 2
      vertex -8.65248 26.6296 2
      vertex -11.9218 25.3352 2
    endloop
  endfacet
  facet normal 0 0 -1
    outer loop
      vertex -12.7734 27.1448 0
      vertex -9.27051 28.5317 0
      vertex -0 -0 0
    endloop
  endfacet
  facet normal -0.329393 0.831944 -0.446508
    outer loop
      vertex -17.0312 36.1931 20
      vertex -12.3607 38.0423 20
      vertex -12.7734 27.1448 0
    endloop
  endfacet
  facet normal -0.329392 0.831944 -0.446509
    outer loop
      vertex -12.3607 38.0423 20
      vertex -9.27051 28.5317 0
      vertex -12.7734 27.1448 0
    endloop
  endfacet
  facet normal 0 -0 1
    outer loop
      vertex -11.7426 36.1401 20
      vertex -7.12049 37.3269 20
      vertex -12.3607 38.0423 20
    endloop
  endfacet
  facet normal 0 0 1
    outer loop
      vertex -7.12049 37.3269 20
      vertex -7.49525 39.2915 20
      vertex -12.3607 38.0423 20
    endloop
  endfacet
  facet normal 0.217481 -0.847093 0.484907
    outer loop
      vertex -8.65248 26.6296 2
      vertex -5.24668 27.504 2
      vertex -11.7426 36.1401 20
    endloop
  endfacet
  facet normal 0.217503 -0.847086 0.484911
    outer loop
      vertex -5.24668 27.504 2
      vertex -7.12049 37.3269 20
      vertex -11.7426 36.1401 20
    endloop
  endfacet
  facet normal 0 0 1
    outer loop
      vertex -0 -0 2
      vertex -5.24668 27.504 2
      vertex -8.65248 26.6296 2
    endloop
  endfacet
  facet normal 0 0 -1
    outer loop
      vertex -9.27051 28.5317 0
      vertex -5.62144 29.4686 0
      vertex -0 -0 0
    endloop
  endfacet
  facet normal -0.222517 0.86667 -0.446508
    outer loop
      vertex -12.3607 38.0423 20
      vertex -7.49525 39.2915 20
      vertex -9.27051 28.5317 0
    endloop
  endfacet
  facet normal -0.222518 0.86667 -0.446508
    outer loop
      vertex -7.49525 39.2915 20
      vertex -5.62144 29.4686 0
      vertex -9.27051 28.5317 0
    endloop
  endfacet
  facet normal 0 -0 1
    outer loop
      vertex -7.12049 37.3269 20
      vertex -2.38604 37.925 20
      vertex -7.49525 39.2915 20
    endloop
  endfacet
  facet normal 0 0 1
    outer loop
      vertex -2.38604 37.925 20
      vertex -2.51162 39.9211 20
      vertex -7.49525 39.2915 20
    endloop
  endfacet
  facet normal 0.10961 -0.867667 0.484911
    outer loop
      vertex -5.24668 27.504 2
      vertex -1.75813 27.9447 2
      vertex -7.12049 37.3269 20
    endloop
  endfacet
  facet normal 0.109612 -0.867667 0.484911
    outer loop
      vertex -1.75813 27.9447 2
      vertex -2.38604 37.925 20
      vertex -7.12049 37.3269 20
    endloop
  endfacet
  facet normal 0 0 1
    outer loop
      vertex -0 -0 2
      vertex -1.75813 27.9447 2
      vertex -5.24668 27.504 2
    endloop
  endfacet
  facet normal 0 0 -1
    outer loop
      vertex -5.62144 29.4686 0
      vertex -1.88372 29.9408 0
      vertex -0 -0 0
    endloop
  endfacet
  facet normal -0.112149 0.887723 -0.446508
    outer loop
      vertex -7.49525 39.2915 20
      vertex -2.51162 39.9211 20
      vertex -5.62144 29.4686 0
    endloop
  endfacet
  facet normal -0.112149 0.887723 -0.446508
    outer loop
      vertex -2.51162 39.9211 20
      vertex -1.88372 29.9408 0
      vertex -5.62144 29.4686 0
    endloop
  endfacet
  facet normal 0 -0 1
    outer loop
      vertex -2.38604 37.925 20
      vertex 2.38604 37.925 20
      vertex -2.51162 39.9211 20
    endloop
  endfacet
  facet normal 0 -0 1
    outer loop
      vertex 2.38604 37.925 20
      vertex 2.51162 39.9211 20
      vertex -2.51162 39.9211 20
    endloop
  endfacet
  facet normal 0 -0.874563 0.484911
    outer loop
      vertex -1.75813 27.9447 2
      vertex 1.75813 27.9447 2
      vertex -2.38604 37.925 20
    endloop
  endfacet
  facet normal 0 -0.874563 0.484911
    outer loop
      vertex 1.75813 27.9447 2
      vertex 2.38604 37.925 20
      vertex -2.38604 37.925 20
    endloop
  endfacet
  facet normal 0 -0 1
    outer loop
      vertex -0 -0 2
      vertex 1.75813 27.9447 2
      vertex -1.75813 27.9447 2
    endloop
  endfacet
  facet normal 0 0 -1
    outer loop
      vertex -1.88372 29.9408 0
      vertex 1.88372 29.9408 0
      vertex -0 -0 0
    endloop
  endfacet
  facet normal 0 0.894779 -0.446508
    outer loop
      vertex -2.51162 39.9211 20
      vertex 2.51162 39.9211 20
      vertex -1.88372 29.9408 0
    endloop
  endfacet
  facet normal 0 0.894779 -0.446508
    outer loop
      vertex 2.51162 39.9211 20
      vertex 1.88372 29.9408 0
      vertex -1.88372 29.9408 0
    endloop
  endfacet
  facet normal -0 0 1
    outer loop
      vertex 2.38604 37.925 20
      vertex 7.12049 37.3269 20
      vertex 2.51162 39.9211 20
    endloop
  endfacet
  facet normal 0 -0 1
    outer loop
      vertex 7.12049 37.3269 20
      vertex 7.49525 39.2915 20
      vertex 2.51162 39.9211 20
    endloop
  endfacet
  facet normal -0.10961 -0.867667 0.484911
    outer loop
      vertex 1.75813 27.9447 2
      vertex 5.24668 27.504 2
      vertex 2.38604 37.925 20
    endloop
  endfacet
  facet normal -0.109612 -0.867667 0.484911
    outer loop
      vertex 5.24668 27.504 2
      vertex 7.12049 37.3269 20
      vertex 2.38604 37.925 20
    endloop
  endfacet
  facet normal 0 0 1
    outer loop
      vertex -0 -0 2
      vertex 5.24668 27.504 2
      vertex 1.75813 27.9447 2
    endloop
  endfacet
  facet normal 0 -0 -1
    outer loop
      vertex 1.88372 29.9408 0
      vertex 5.62144 29.4686 0
      vertex -0 -0 0
    endloop
  endfacet
  facet normal 0.112149 0.887723 -0.446508
    outer loop
      vertex 2.51162 39.9211 20
      vertex 7.49525 39.2915 20
      vertex 1.88372 29.9408 0
    endloop
  endfacet
  facet normal 0.112149 0.887723 -0.446508
    outer loop
      vertex 7.49525 39.2915 20
      vertex 5.62144 29.4686 0
      vertex 1.88372 29.9408 0
    endloop
  endfacet
  facet normal -0 0 1
    outer loop
      vertex 7.12049 37.3269 20
      vertex 11.7426 36.1401 20
      vertex 7.49525 39.2915 20
    endloop
  endfacet
  facet normal 0 -0 1
    outer loop
      vertex 11.7426 36.1401 20
      vertex 12.3607 38.0423 20
      vertex 7.49525 39.2915 20
    endloop
  endfacet
  facet normal -0.217481 -0.847091 0.484911
    outer loop
      vertex 5.24668 27.504 2
      vertex 8.65248 26.6296 2
      vertex 7.12049 37.3269 20
    endloop
  endfacet
  facet normal -0.217503 -0.847087 0.484908
    outer loop
      vertex 8.65248 26.6296 2
      vertex 11.7426 36.1401 20
      vertex 7.12049 37.3269 20
    endloop
  endfacet
  facet normal 0 0 1
    outer loop
      vertex -0 -0 2
      vertex 8.65248 26.6296 2
      vertex 5.24668 27.504 2
    endloop
  endfacet
  facet normal 0 -0 -1
    outer loop
      vertex 5.62144 29.4686 0
      vertex 9.27051 28.5317 0
      vertex -0 -0 0
    endloop
  endfacet
  facet normal 0.222517 0.86667 -0.446508
    outer loop
      vertex 7.49525 39.2915 20
      vertex 12.3607 38.0423 20
      vertex 5.62144 29.4686 0
    endloop
  endfacet
  facet normal 0.222518 0.86667 -0.446508
    outer loop
      vertex 12.3607 38.0423 20
      vertex 9.27051 28.5317 0
      vertex 5.62144 29.4686 0
    endloop
  endfacet
  facet normal -0 0 1
    outer loop
      vertex 11.7426 36.1401 20
      vertex 16.1796 34.3834 20
      vertex 12.3607 38.0423 20
    endloop
  endfacet
  facet normal 0 -0 1
    outer loop
      vertex 16.1796 34.3834 20
      vertex 17.0312 36.1931 20
      vertex 12.3607 38.0423 20
    endloop
  endfacet
  facet normal -0.321946 -0.813152 0.484907
    outer loop
      vertex 8.65248 26.6296 2
      vertex 11.9218 25.3352 2
      vertex 11.7426 36.1401 20
    endloop
  endfacet
  facet normal -0.321944 -0.813152 0.484908
    outer loop
      vertex 11.9218 25.3352 2
      vertex 16.1796 34.3834 20
      vertex 11.7426 36.1401 20
    endloop
  endfacet
  facet normal 0 0 1
    outer loop
      vertex -0 -0 2
      vertex 11.9218 25.3352 2
      vertex 8.65248 26.6296 2
    endloop
  endfacet
  facet normal 0 -0 -1
    outer loop
      vertex 9.27051 28.5317 0
      vertex 12.7734 27.1448 0
      vertex -0 -0 0
    endloop
  endfacet
  facet normal 0.329393 0.831944 -0.446509
    outer loop
      vertex 12.3607 38.0423 20
      vertex 17.0312 36.1931 20
      vertex 9.27051 28.5317 0
    endloop
  endfacet
  facet normal 0.329392 0.831944 -0.446508
    outer loop
      vertex 17.0312 36.1931 20
      vertex 12.7734 27.1448 0
      vertex 9.27051 28.5317 0
    endloop
  endfacet
  facet normal -0 0 1
    outer loop
      vertex 16.1796 34.3834 20
      vertex 20.3614 32.0845 20
      vertex 17.0312 36.1931 20
    endloop
  endfacet
  facet normal 0 -0 1
    outer loop
      vertex 20.3614 32.0845 20
      vertex 21.4331 33.7731 20
      vertex 17.0312 36.1931 20
    endloop
  endfacet
  facet normal -0.421333 -0.766383 0.484908
    outer loop
      vertex 11.9218 25.3352 2
      vertex 15.0031 23.6412 2
      vertex 16.1796 34.3834 20
    endloop
  endfacet
  facet normal -0.421315 -0.766391 0.484911
    outer loop
      vertex 15.0031 23.6412 2
      vertex 20.3614 32.0845 20
      vertex 16.1796 34.3834 20
    endloop
  endfacet
  facet normal 0 0 1
    outer loop
      vertex -0 -0 2
      vertex 15.0031 23.6412 2
      vertex 11.9218 25.3352 2
    endloop
  endfacet
  facet normal 0 -0 -1
    outer loop
      vertex 12.7734 27.1448 0
      vertex 16.0748 25.3298 0
      vertex -0 -0 0
    endloop
  endfacet
  facet normal 0.431068 0.784099 -0.446508
    outer loop
      vertex 17.0312 36.1931 20
      vertex 21.4331 33.7731 20
      vertex 12.7734 27.1448 0
    endloop
  endfacet
  facet normal 0.431071 0.784097 -0.446509
    outer loop
      vertex 21.4331 33.7731 20
      vertex 16.0748 25.3298 0
      vertex 12.7734 27.1448 0
    endloop
  endfacet
  facet normal -0 0 1
    outer loop
      vertex 20.3614 32.0845 20
      vertex 24.2221 29.2795 20
      vertex 21.4331 33.7731 20
    endloop
  endfacet
  facet normal 0 -0 1
    outer loop
      vertex 24.2221 29.2795 20
      vertex 25.497 30.8205 20
      vertex 21.4331 33.7731 20
    endloop
  endfacet
  facet normal -0.514044 -0.707544 0.484912
    outer loop
      vertex 15.0031 23.6412 2
      vertex 17.8479 21.5744 2
      vertex 20.3614 32.0845 20
    endloop
  endfacet
  facet normal -0.514061 -0.707535 0.484908
    outer loop
      vertex 17.8479 21.5744 2
      vertex 24.2221 29.2795 20
      vertex 20.3614 32.0845 20
    endloop
  endfacet
  facet normal 0 0 1
    outer loop
      vertex -0 -0 2
      vertex 17.8479 21.5744 2
      vertex 15.0031 23.6412 2
    endloop
  endfacet
  facet normal 0 -0 -1
    outer loop
      vertex 16.0748 25.3298 0
      vertex 19.1227 23.1154 0
      vertex -0 -0 0
    endloop
  endfacet
  facet normal 0.525939 0.723891 -0.446508
    outer loop
      vertex 21.4331 33.7731 20
      vertex 25.497 30.8205 20
      vertex 16.0748 25.3298 0
    endloop
  endfacet
  facet normal 0.525934 0.723895 -0.446507
    outer loop
      vertex 25.497 30.8205 20
      vertex 19.1227 23.1154 0
      vertex 16.0748 25.3298 0
    endloop
  endfacet
  facet normal -0 0 1
    outer loop
      vertex 24.2221 29.2795 20
      vertex 27.7008 26.0128 20
      vertex 25.497 30.8205 20
    endloop
  endfacet
  facet normal 0 -0 1
    outer loop
      vertex 27.7008 26.0128 20
      vertex 29.1587 27.3819 20
      vertex 25.497 30.8205 20
    endloop
  endfacet
  facet normal -0.598694 -0.637519 0.484908
    outer loop
      vertex 17.8479 21.5744 2
      vertex 20.4111 19.1673 2
      vertex 24.2221 29.2795 20
    endloop
  endfacet
  facet normal -0.598678 -0.637531 0.484911
    outer loop
      vertex 20.4111 19.1673 2
      vertex 27.7008 26.0128 20
      vertex 24.2221 29.2795 20
    endloop
  endfacet
  facet normal 0 0 1
    outer loop
      vertex -0 -0 2
      vertex 20.4111 19.1673 2
      vertex 17.8479 21.5744 2
    endloop
  endfacet
  facet normal 0 -0 -1
    outer loop
      vertex 19.1227 23.1154 0
      vertex 21.8691 20.5364 0
      vertex -0 -0 0
    endloop
  endfacet
  facet normal 0.612522 0.652263 -0.446508
    outer loop
      vertex 25.497 30.8205 20
      vertex 29.1587 27.3819 20
      vertex 19.1227 23.1154 0
    endloop
  endfacet
  facet normal 0.612514 0.652272 -0.446506
    outer loop
      vertex 29.1587 27.3819 20
      vertex 21.8691 20.5364 0
      vertex 19.1227 23.1154 0
    endloop
  endfacet
  facet normal -0 0 1
    outer loop
      vertex 27.7008 26.0128 20
      vertex 30.7426 22.3358 20
      vertex 29.1587 27.3819 20
    endloop
  endfacet
  facet normal 0 -0 1
    outer loop
      vertex 30.7426 22.3358 20
      vertex 32.3607 23.5114 20
      vertex 29.1587 27.3819 20
    endloop
  endfacet
  facet normal -0.673854 -0.557478 0.484912
    outer loop
      vertex 20.4111 19.1673 2
      vertex 22.6525 16.458 2
      vertex 27.7008 26.0128 20
    endloop
  endfacet
  facet normal -0.673871 -0.557461 0.484907
    outer loop
      vertex 22.6525 16.458 2
      vertex 30.7426 22.3358 20
      vertex 27.7008 26.0128 20
    endloop
  endfacet
  facet normal 0 0 1
    outer loop
      vertex -0 -0 2
      vertex 22.6525 16.458 2
      vertex 20.4111 19.1673 2
    endloop
  endfacet
  facet normal 0 -0 -1
    outer loop
      vertex 21.8691 20.5364 0
      vertex 24.2705 17.6336 0
      vertex -0 -0 0
    endloop
  endfacet
  facet normal 0.689437 0.570359 -0.446506
    outer loop
      vertex 29.1587 27.3819 20
      vertex 32.3607 23.5114 20
      vertex 21.8691 20.5364 0
    endloop
  endfacet
  facet normal 0.689441 0.570354 -0.446507
    outer loop
      vertex 32.3607 23.5114 20
      vertex 24.2705 17.6336 0
      vertex 21.8691 20.5364 0
    endloop
  endfacet
  facet normal -0 0 1
    outer loop
      vertex 30.7426 22.3358 20
      vertex 33.2997 18.3066 20
      vertex 32.3607 23.5114 20
    endloop
  endfacet
  facet normal 0 -0 1
    outer loop
      vertex 33.2997 18.3066 20
      vertex 35.0523 19.2701 20
      vertex 32.3607 23.5114 20
    endloop
  endfacet
  facet normal -0.738423 -0.468612 0.484907
    outer loop
      vertex 22.6525 16.458 2
      vertex 24.5366 13.4891 2
      vertex 30.7426 22.3358 20
    endloop
  endfacet
  facet normal -0.738411 -0.468627 0.48491
    outer loop
      vertex 24.5366 13.4891 2
      vertex 33.2997 18.3066 20
      vertex 30.7426 22.3358 20
    endloop
  endfacet
  facet normal 0 0 1
    outer loop
      vertex -0 -0 2
      vertex 24.5366 13.4891 2
      vertex 22.6525 16.458 2
    endloop
  endfacet
  facet normal 0 -0 -1
    outer loop
      vertex 24.2705 17.6336 0
      vertex 26.2892 14.4526 0
      vertex -0 -0 0
    endloop
  endfacet
  facet normal 0.755489 0.479446 -0.446507
    outer loop
      vertex 32.3607 23.5114 20
      vertex 35.0523 19.2701 20
      vertex 24.2705 17.6336 0
    endloop
  endfacet
  facet normal 0.75549 0.479443 -0.446508
    outer loop
      vertex 35.0523 19.2701 20
      vertex 26.2892 14.4526 0
      vertex 24.2705 17.6336 0
    endloop
  endfacet
  facet normal -0 0 1
    outer loop
      vertex 33.2997 18.3066 20
      vertex 35.3315 13.9887 20
      vertex 35.0523 19.2701 20
    endloop
  endfacet
  facet normal 0 -0 1
    outer loop
      vertex 35.3315 13.9887 20
      vertex 37.1911 14.725 20
      vertex 35.0523 19.2701 20
    endloop
  endfacet
  facet normal -0.791334 -0.372362 0.48491
    outer loop
      vertex 24.5366 13.4891 2
      vertex 26.0337 10.3075 2
      vertex 33.2997 18.3066 20
    endloop
  endfacet
  facet normal -0.791332 -0.372364 0.484911
    outer loop
      vertex 26.0337 10.3075 2
      vertex 35.3315 13.9887 20
      vertex 33.2997 18.3066 20
    endloop
  endfacet
  facet normal 0 0 1
    outer loop
      vertex -0 -0 2
      vertex 26.0337 10.3075 2
      vertex 24.5366 13.4891 2
    endloop
  endfacet
  facet normal 0 -0 -1
    outer loop
      vertex 26.2892 14.4526 0
      vertex 27.8933 11.0437 0
      vertex -0 -0 0
    endloop
  endfacet
  facet normal 0.809618 0.380984 -0.446508
    outer loop
      vertex 35.0523 19.2701 20
      vertex 37.1911 14.725 20
      vertex 26.2892 14.4526 0
    endloop
  endfacet
  facet normal 0.809621 0.380977 -0.446509
    outer loop
      vertex 37.1911 14.725 20
      vertex 27.8933 11.0437 0
      vertex 26.2892 14.4526 0
    endloop
  endfacet
  facet normal -0 0 1
    outer loop
      vertex 35.3315 13.9887 20
      vertex 36.8062 9.45022 20
      vertex 37.1911 14.725 20
    endloop
  endfacet
  facet normal 0 0 1
    outer loop
      vertex 36.8062 9.45022 20
      vertex 38.7433 9.9476 20
      vertex 37.1911 14.725 20
    endloop
  endfacet
  facet normal -0.831759 -0.270257 0.484911
    outer loop
      vertex 26.0337 10.3075 2
      vertex 27.1203 6.96332 2
      vertex 35.3315 13.9887 20
    endloop
  endfacet
  facet normal -0.831755 -0.270264 0.484912
    outer loop
      vertex 27.1203 6.96332 2
      vertex 36.8062 9.45022 20
      vertex 35.3315 13.9887 20
    endloop
  endfacet
  facet normal 0 0 1
    outer loop
      vertex -0 -0 2
      vertex 27.1203 6.96332 2
      vertex 26.0337 10.3075 2
    endloop
  endfacet
  facet normal 0 -0 -1
    outer loop
      vertex 27.8933 11.0437 0
      vertex 29.0575 7.4607 0
      vertex -0 -0 0
    endloop
  endfacet
  facet normal 0.850989 0.276491 -0.446509
    outer loop
      vertex 37.1911 14.725 20
      vertex 38.7433 9.9476 20
      vertex 27.8933 11.0437 0
    endloop
  endfacet
  facet normal 0.850986 0.276505 -0.446506
    outer loop
      vertex 38.7433 9.9476 20
      vertex 29.0575 7.4607 0
      vertex 27.8933 11.0437 0
    endloop
  endfacet
  facet normal -0 0 1
    outer loop
      vertex 36.8062 9.45022 20
      vertex 37.7004 4.76266 20
      vertex 38.7433 9.9476 20
    endloop
  endfacet
  facet normal 0 0 1
    outer loop
      vertex 37.7004 4.76266 20
      vertex 39.6846 5.01333 20
      vertex 38.7433 9.9476 20
    endloop
  endfacet
  facet normal -0.859071 -0.163881 0.484913
    outer loop
      vertex 27.1203 6.96332 2
      vertex 27.7792 3.50933 2
      vertex 36.8062 9.45022 20
    endloop
  endfacet
  facet normal -0.859072 -0.163877 0.484912
    outer loop
      vertex 27.7792 3.50933 2
      vertex 37.7004 4.76266 20
      vertex 36.8062 9.45022 20
    endloop
  endfacet
  facet normal 0 0 1
    outer loop
      vertex -0 -0 2
      vertex 27.7792 3.50933 2
      vertex 27.1203 6.96332 2
    endloop
  endfacet
  facet normal 0 -0 -1
    outer loop
      vertex 29.0575 7.4607 0
      vertex 29.7634 3.76 0
      vertex -0 -0 0
    endloop
  endfacet
  facet normal 0.87893 0.167672 -0.446506
    outer loop
      vertex 38.7433 9.9476 20
      vertex 39.6846 5.01333 20
      vertex 29.0575 7.4607 0
    endloop
  endfacet
  facet normal 0.878932 0.167654 -0.446509
    outer loop
      vertex 39.6846 5.01333 20
      vertex 29.7634 3.76 0
      vertex 29.0575 7.4607 0
    endloop
  endfacet
  facet normal -0 0 1
    outer loop
      vertex 37.7004 4.76266 20
      vertex 38 0 20
      vertex 39.6846 5.01333 20
    endloop
  endfacet
  facet normal 0 0 1
    outer loop
      vertex 38 0 20
      vertex 40 0 20
      vertex 39.6846 5.01333 20
    endloop
  endfacet
  facet normal -0.872837 -0.0549171 0.484912
    outer loop
      vertex 27.7792 3.50933 2
      vertex 28 0 2
      vertex 37.7004 4.76266 20
    endloop
  endfacet
  facet normal -0.872839 -0.0549068 0.48491
    outer loop
      vertex 28 0 2
      vertex 38 0 20
      vertex 37.7004 4.76266 20
    endloop
  endfacet
  facet normal 0 0 1
    outer loop
      vertex -0 -0 2
      vertex 28 0 2
      vertex 27.7792 3.50933 2
    endloop
  endfacet
  facet normal 0 -0 -1
    outer loop
      vertex 29.7634 3.76 0
      vertex 30 0 0
      vertex -0 -0 0
    endloop
  endfacet
  facet normal 0.893014 0.0561815 -0.446509
    outer loop
      vertex 39.6846 5.01333 20
      vertex 40 0 20
      vertex 29.7634 3.76 0
    endloop
  endfacet
  facet normal 0.893014 0.0561934 -0.446507
    outer loop
      vertex 40 0 20
      vertex 30 0 0
      vertex 29.7634 3.76 0
    endloop
  endfacet
  facet normal -0 0 1
    outer loop
      vertex 38 0 20
      vertex 37.7004 -4.76266 20
      vertex 40 0 20
    endloop
  endfacet
  facet normal -0 0 1
    outer loop
      vertex 37.7004 -4.76266 20
      vertex 39.6846 -5.01333 20
      vertex 40 0 20
    endloop
  endfacet
  facet normal -0.872838 0.0549172 0.48491
    outer loop
      vertex 28 0 2
      vertex 27.7792 -3.50933 2
      vertex 38 0 20
    endloop
  endfacet
  facet normal -0.872838 0.0549068 0.484912
    outer loop
      vertex 27.7792 -3.50933 2
      vertex 37.7004 -4.76266 20
      vertex 38 0 20
    endloop
  endfacet
  facet normal -0 0 1
    outer loop
      vertex -0 -0 2
      vertex 27.7792 -3.50933 2
      vertex 28 0 2
    endloop
  endfacet
  facet normal 0 0 -1
    outer loop
      vertex 30 0 0
      vertex 29.7634 -3.76 0
      vertex -0 -0 0
    endloop
  endfacet
  facet normal 0.893015 -0.0561816 -0.446507
    outer loop
      vertex 40 0 20
      vertex 39.6846 -5.01333 20
      vertex 30 0 0
    endloop
  endfacet
  facet normal 0.893013 -0.0561933 -0.446509
    outer loop
      vertex 39.6846 -5.01333 20
      vertex 29.7634 -3.76 0
      vertex 30 0 0
    endloop
  endfacet
  facet normal 0 0 1
    outer loop
      vertex 37.7004 -4.76266 20
      vertex 36.8062 -9.45022 20
      vertex 39.6846 -5.01333 20
    endloop
  endfacet
  facet normal -0 0 1
    outer loop
      vertex 36.8062 -9.45022 20
      vertex 38.7433 -9.9476 20
      vertex 39.6846 -5.01333 20
    endloop
  endfacet
  facet normal -0.859071 0.163881 0.484912
    outer loop
      vertex 27.7792 -3.50933 2
      vertex 27.1203 -6.96332 2
      vertex 37.7004 -4.76266 20
    endloop
  endfacet
  facet normal -0.859072 0.163877 0.484913
    outer loop
      vertex 27.1203 -6.96332 2
      vertex 36.8062 -9.45022 20
      vertex 37.7004 -4.76266 20
    endloop
  endfacet
  facet normal 0 0 1
    outer loop
      vertex -0 -0 2
      vertex 27.1203 -6.96332 2
      vertex 27.7792 -3.50933 2
    endloop
  endfacet
  facet normal -0 0 -1
    outer loop
      vertex 29.7634 -3.76 0
      vertex 29.0575 -7.4607 0
      vertex -0 -0 0
    endloop
  endfacet
  facet normal 0.878929 -0.167671 -0.446509
    outer loop
      vertex 39.6846 -5.01333 20
      vertex 38.7433 -9.9476 20
      vertex 29.7634 -3.76 0
    endloop
  endfacet
  facet normal 0.878934 -0.167655 -0.446506
    outer loop
      vertex 38.7433 -9.9476 20
      vertex 29.0575 -7.4607 0
      vertex 29.7634 -3.76 0
    endloop
  endfacet
  facet normal 0 0 1
    outer loop
      vertex 36.8062 -9.45022 20
      vertex 35.3315 -13.9887 20
      vertex 38.7433 -9.9476 20
    endloop
  endfacet
  facet normal -0 0 1
    outer loop
      vertex 35.3315 -13.9887 20
      vertex 37.1911 -14.725 20
      vertex 38.7433 -9.9476 20
    endloop
  endfacet
  facet normal -0.831758 0.270257 0.484912
    outer loop
      vertex 27.1203 -6.96332 2
      vertex 26.0337 -10.3075 2
      vertex 36.8062 -9.45022 20
    endloop
  endfacet
  facet normal -0.831756 0.270265 0.484911
    outer loop
      vertex 26.0337 -10.3075 2
      vertex 35.3315 -13.9887 20
      vertex 36.8062 -9.45022 20
    endloop
  endfacet
  facet normal 0 0 1
    outer loop
      vertex -0 -0 2
      vertex 26.0337 -10.3075 2
      vertex 27.1203 -6.96332 2
    endloop
  endfacet
  facet normal -0 0 -1
    outer loop
      vertex 29.0575 -7.4607 0
      vertex 27.8933 -11.0437 0
      vertex -0 -0 0
    endloop
  endfacet
  facet normal 0.85099 -0.276491 -0.446506
    outer loop
      vertex 38.7433 -9.9476 20
      vertex 37.1911 -14.725 20
      vertex 29.0575 -7.4607 0
    endloop
  endfacet
  facet normal 0.850985 -0.276505 -0.446509
    outer loop
      vertex 37.1911 -14.725 20
      vertex 27.8933 -11.0437 0
      vertex 29.0575 -7.4607 0
    endloop
  endfacet
  facet normal 0 0 1
    outer loop
      vertex 35.3315 -13.9887 20
      vertex 33.2997 -18.3066 20
      vertex 37.1911 -14.725 20
    endloop
  endfacet
  facet normal -0 0 1
    outer loop
      vertex 33.2997 -18.3066 20
      vertex 35.0523 -19.2701 20
      vertex 37.1911 -14.725 20
    endloop
  endfacet
  facet normal -0.791333 0.372361 0.484911
    outer loop
      vertex 26.0337 -10.3075 2
      vertex 24.5366 -13.4891 2
      vertex 35.3315 -13.9887 20
    endloop
  endfacet
  facet normal -0.791332 0.372364 0.48491
    outer loop
      vertex 24.5366 -13.4891 2
      vertex 33.2997 -18.3066 20
      vertex 35.3315 -13.9887 20
    endloop
  endfacet
  facet normal 0 0 1
    outer loop
      vertex -0 -0 2
      vertex 24.5366 -13.4891 2
      vertex 26.0337 -10.3075 2
    endloop
  endfacet
  facet normal -0 0 -1
    outer loop
      vertex 27.8933 -11.0437 0
      vertex 26.2892 -14.4526 0
      vertex -0 -0 0
    endloop
  endfacet
  facet normal 0.809618 -0.380984 -0.446509
    outer loop
      vertex 37.1911 -14.725 20
      vertex 35.0523 -19.2701 20
      vertex 27.8933 -11.0437 0
    endloop
  endfacet
  facet normal 0.809622 -0.380977 -0.446508
    outer loop
      vertex 35.0523 -19.2701 20
      vertex 26.2892 -14.4526 0
      vertex 27.8933 -11.0437 0
    endloop
  endfacet
  facet normal 0 0 1
    outer loop
      vertex 33.2997 -18.3066 20
      vertex 30.7426 -22.3358 20
      vertex 35.0523 -19.2701 20
    endloop
  endfacet
  facet normal -0 0 1
    outer loop
      vertex 30.7426 -22.3358 20
      vertex 32.3607 -23.5114 20
      vertex 35.0523 -19.2701 20
    endloop
  endfacet
  facet normal -0.738421 0.468611 0.484911
    outer loop
      vertex 24.5366 -13.4891 2
      vertex 22.6525 -16.458 2
      vertex 33.2997 -18.3066 20
    endloop
  endfacet
  facet normal -0.738413 0.468628 0.484907
    outer loop
      vertex 22.6525 -16.458 2
      vertex 30.7426 -22.3358 20
      vertex 33.2997 -18.3066 20
    endloop
  endfacet
  facet normal 0 0 1
    outer loop
      vertex -0 -0 2
      vertex 22.6525 -16.458 2
      vertex 24.5366 -13.4891 2
    endloop
  endfacet
  facet normal -0 0 -1
    outer loop
      vertex 26.2892 -14.4526 0
      vertex 24.2705 -17.6336 0
      vertex -0 -0 0
    endloop
  endfacet
  facet normal 0.755489 -0.479446 -0.446508
    outer loop
      vertex 35.0523 -19.2701 20
      vertex 32.3607 -23.5114 20
      vertex 26.2892 -14.4526 0
    endloop
  endfacet
  facet normal 0.75549 -0.479443 -0.446507
    outer loop
      vertex 32.3607 -23.5114 20
      vertex 24.2705 -17.6336 0
      vertex 26.2892 -14.4526 0
    endloop
  endfacet
  facet normal 0 0 1
    outer loop
      vertex 30.7426 -22.3358 20
      vertex 27.7008 -26.0128 20
      vertex 32.3607 -23.5114 20
    endloop
  endfacet
  facet normal -0 0 1
    outer loop
      vertex 27.7008 -26.0128 20
      vertex 29.1587 -27.3819 20
      vertex 32.3607 -23.5114 20
    endloop
  endfacet
  facet normal -0.673856 0.55748 0.484907
    outer loop
      vertex 22.6525 -16.458 2
      vertex 20.4111 -19.1673 2
      vertex 30.7426 -22.3358 20
    endloop
  endfacet
  facet normal -0.67387 0.557459 0.484911
    outer loop
      vertex 20.4111 -19.1673 2
      vertex 27.7008 -26.0128 20
      vertex 30.7426 -22.3358 20
    endloop
  endfacet
  facet normal 0 0 1
    outer loop
      vertex -0 -0 2
      vertex 20.4111 -19.1673 2
      vertex 22.6525 -16.458 2
    endloop
  endfacet
  facet normal -0 0 -1
    outer loop
      vertex 24.2705 -17.6336 0
      vertex 21.8691 -20.5364 0
      vertex -0 -0 0
    endloop
  endfacet
  facet normal 0.689436 -0.570359 -0.446507
    outer loop
      vertex 32.3607 -23.5114 20
      vertex 29.1587 -27.3819 20
      vertex 24.2705 -17.6336 0
    endloop
  endfacet
  facet normal 0.689441 -0.570354 -0.446505
    outer loop
      vertex 29.1587 -27.3819 20
      vertex 21.8691 -20.5364 0
      vertex 24.2705 -17.6336 0
    endloop
  endfacet
  facet normal 0 0 1
    outer loop
      vertex 27.7008 -26.0128 20
      vertex 24.2221 -29.2795 20
      vertex 29.1587 -27.3819 20
    endloop
  endfacet
  facet normal -0 0 1
    outer loop
      vertex 24.2221 -29.2795 20
      vertex 25.497 -30.8205 20
      vertex 29.1587 -27.3819 20
    endloop
  endfacet
  facet normal -0.598692 0.637517 0.484912
    outer loop
      vertex 20.4111 -19.1673 2
      vertex 17.8479 -21.5744 2
      vertex 27.7008 -26.0128 20
    endloop
  endfacet
  facet normal -0.598679 0.637532 0.484908
    outer loop
      vertex 17.8479 -21.5744 2
      vertex 24.2221 -29.2795 20
      vertex 27.7008 -26.0128 20
    endloop
  endfacet
  facet normal 0 0 1
    outer loop
      vertex -0 -0 2
      vertex 17.8479 -21.5744 2
      vertex 20.4111 -19.1673 2
    endloop
  endfacet
  facet normal -0 0 -1
    outer loop
      vertex 21.8691 -20.5364 0
      vertex 19.1227 -23.1154 0
      vertex -0 -0 0
    endloop
  endfacet
  facet normal 0.612523 -0.652264 -0.446506
    outer loop
      vertex 29.1587 -27.3819 20
      vertex 25.497 -30.8205 20
      vertex 21.8691 -20.5364 0
    endloop
  endfacet
  facet normal 0.612514 -0.652271 -0.446508
    outer loop
      vertex 25.497 -30.8205 20
      vertex 19.1227 -23.1154 0
      vertex 21.8691 -20.5364 0
    endloop
  endfacet
  facet normal 0 0 1
    outer loop
      vertex 24.2221 -29.2795 20
      vertex 20.3614 -32.0845 20
      vertex 25.497 -30.8205 20
    endloop
  endfacet
  facet normal -0 0 1
    outer loop
      vertex 20.3614 -32.0845 20
      vertex 21.4331 -33.7731 20
      vertex 25.497 -30.8205 20
    endloop
  endfacet
  facet normal -0.514045 0.707546 0.484908
    outer loop
      vertex 17.8479 -21.5744 2
      vertex 15.0031 -23.6412 2
      vertex 24.2221 -29.2795 20
    endloop
  endfacet
  facet normal -0.51406 0.707533 0.484911
    outer loop
      vertex 15.0031 -23.6412 2
      vertex 20.3614 -32.0845 20
      vertex 24.2221 -29.2795 20
    endloop
  endfacet
  facet normal 0 0 1
    outer loop
      vertex -0 -0 2
      vertex 15.0031 -23.6412 2
      vertex 17.8479 -21.5744 2
    endloop
  endfacet
  facet normal -0 0 -1
    outer loop
      vertex 19.1227 -23.1154 0
      vertex 16.0748 -25.3298 0
      vertex -0 -0 0
    endloop
  endfacet
  facet normal 0.525939 -0.723892 -0.446508
    outer loop
      vertex 25.497 -30.8205 20
      vertex 21.4331 -33.7731 20
      vertex 19.1227 -23.1154 0
    endloop
  endfacet
  facet normal 0.525934 -0.723895 -0.446509
    outer loop
      vertex 21.4331 -33.7731 20
      vertex 16.0748 -25.3298 0
      vertex 19.1227 -23.1154 0
    endloop
  endfacet
  facet normal 0 0 1
    outer loop
      vertex 20.3614 -32.0845 20
      vertex 16.1796 -34.3834 20
      vertex 21.4331 -33.7731 20
    endloop
  endfacet
  facet normal -0 0 1
    outer loop
      vertex 16.1796 -34.3834 20
      vertex 17.0312 -36.1931 20
      vertex 21.4331 -33.7731 20
    endloop
  endfacet
  facet normal -0.421332 0.766381 0.484912
    outer loop
      vertex 15.0031 -23.6412 2
      vertex 11.9218 -25.3352 2
      vertex 20.3614 -32.0845 20
    endloop
  endfacet
  facet normal -0.421316 0.766392 0.484908
    outer loop
      vertex 11.9218 -25.3352 2
      vertex 16.1796 -34.3834 20
      vertex 20.3614 -32.0845 20
    endloop
  endfacet
  facet normal 0 0 1
    outer loop
      vertex -0 -0 2
      vertex 11.9218 -25.3352 2
      vertex 15.0031 -23.6412 2
    endloop
  endfacet
  facet normal -0 0 -1
    outer loop
      vertex 16.0748 -25.3298 0
      vertex 12.7734 -27.1448 0
      vertex -0 -0 0
    endloop
  endfacet
  facet normal 0.431068 -0.784099 -0.446509
    outer loop
      vertex 21.4331 -33.7731 20
      vertex 17.0312 -36.1931 20
      vertex 16.0748 -25.3298 0
    endloop
  endfacet
  facet normal 0.431071 -0.784097 -0.446508
    outer loop
      vertex 17.0312 -36.1931 20
      vertex 12.7734 -27.1448 0
      vertex 16.0748 -25.3298 0
    endloop
  endfacet
  facet normal 0 0 1
    outer loop
      vertex 16.1796 -34.3834 20
      vertex 11.7426 -36.1401 20
      vertex 17.0312 -36.1931 20
    endloop
  endfacet
  facet normal 0 0 1
    outer loop
      vertex 11.7426 -36.1401 20
      vertex 12.3607 -38.0423 20
      vertex 17.0312 -36.1931 20
    endloop
  endfacet
  facet normal -0.321946 0.813152 0.484908
    outer loop
      vertex 11.9218 -25.3352 2
      vertex 8.65248 -26.6296 2
      vertex 16.1796 -34.3834 20
    endloop
  endfacet
  facet normal -0.321944 0.813153 0.484907
    outer loop
      vertex 8.65248 -26.6296 2
      vertex 11.7426 -36.1401 20
      vertex 16.1796 -34.3834 20
    endloop
  endfacet
  facet normal 0 0 1
    outer loop
      vertex -0 -0 2
      vertex 8.65248 -26.6296 2
      vertex 11.9218 -25.3352 2
    endloop
  endfacet
  facet normal -0 0 -1
    outer loop
      vertex 12.7734 -27.1448 0
      vertex 9.27051 -28.5317 0
      vertex -0 -0 0
    endloop
  endfacet
  facet normal 0.329393 -0.831944 -0.446508
    outer loop
      vertex 17.0312 -36.1931 20
      vertex 12.3607 -38.0423 20
      vertex 12.7734 -27.1448 0
    endloop
  endfacet
  facet normal 0.329392 -0.831944 -0.446509
    outer loop
      vertex 12.3607 -38.0423 20
      vertex 9.27051 -28.5317 0
      vertex 12.7734 -27.1448 0
    endloop
  endfacet
  facet normal 0 0 1
    outer loop
      vertex 11.7426 -36.1401 20
      vertex 7.12049 -37.3269 20
      vertex 12.3607 -38.0423 20
    endloop
  endfacet
  facet normal 0 0 1
    outer loop
      vertex 7.12049 -37.3269 20
      vertex 7.49525 -39.2915 20
      vertex 12.3607 -38.0423 20
    endloop
  endfacet
  facet normal -0.217481 0.847093 0.484907
    outer loop
      vertex 8.65248 -26.6296 2
      vertex 5.24668 -27.504 2
      vertex 11.7426 -36.1401 20
    endloop
  endfacet
  facet normal -0.217503 0.847086 0.484911
    outer loop
      vertex 5.24668 -27.504 2
      vertex 7.12049 -37.3269 20
      vertex 11.7426 -36.1401 20
    endloop
  endfacet
  facet normal 0 0 1
    outer loop
      vertex -0 -0 2
      vertex 5.24668 -27.504 2
      vertex 8.65248 -26.6296 2
    endloop
  endfacet
  facet normal -0 0 -1
    outer loop
      vertex 9.27051 -28.5317 0
      vertex 5.62144 -29.4686 0
      vertex -0 -0 0
    endloop
  endfacet
  facet normal 0.222517 -0.86667 -0.446508
    outer loop
      vertex 12.3607 -38.0423 20
      vertex 7.49525 -39.2915 20
      vertex 9.27051 -28.5317 0
    endloop
  endfacet
  facet normal 0.222518 -0.86667 -0.446508
    outer loop
      vertex 7.49525 -39.2915 20
      vertex 5.62144 -29.4686 0
      vertex 9.27051 -28.5317 0
    endloop
  endfacet
  facet normal 0 0 1
    outer loop
      vertex 7.12049 -37.3269 20
      vertex 2.38604 -37.925 20
      vertex 7.49525 -39.2915 20
    endloop
  endfacet
  facet normal 0 0 1
    outer loop
      vertex 2.38604 -37.925 20
      vertex 2.51162 -39.9211 20
      vertex 7.49525 -39.2915 20
    endloop
  endfacet
  facet normal -0.10961 0.867667 0.484911
    outer loop
      vertex 5.24668 -27.504 2
      vertex 1.75813 -27.9447 2
      vertex 7.12049 -37.3269 20
    endloop
  endfacet
  facet normal -0.109612 0.867667 0.484911
    outer loop
      vertex 1.75813 -27.9447 2
      vertex 2.38604 -37.925 20
      vertex 7.12049 -37.3269 20
    endloop
  endfacet
  facet normal 0 0 1
    outer loop
      vertex -0 -0 2
      vertex 1.75813 -27.9447 2
      vertex 5.24668 -27.504 2
    endloop
  endfacet
  facet normal -0 0 -1
    outer loop
      vertex 5.62144 -29.4686 0
      vertex 1.88372 -29.9408 0
      vertex -0 -0 0
    endloop
  endfacet
  facet normal 0.112149 -0.887723 -0.446508
    outer loop
      vertex 7.49525 -39.2915 20
      vertex 2.51162 -39.9211 20
      vertex 5.62144 -29.4686 0
    endloop
  endfacet
  facet normal 0.112149 -0.887723 -0.446508
    outer loop
      vertex 2.51162 -39.9211 20
      vertex 1.88372 -29.9408 0
      vertex 5.62144 -29.4686 0
    endloop
  endfacet
  facet normal 0 0 1
    outer loop
      vertex 2.38604 -37.925 20
      vertex -2.38604 -37.925 20
      vertex 2.51162 -39.9211 20
    endloop
  endfacet
  facet normal 0 0 1
    outer loop
      vertex -2.38604 -37.925 20
      vertex -2.51162 -39.9211 20
      vertex 2.51162 -39.9211 20
    endloop
  endfacet
  facet normal 0 0.874563 0.484911
    outer loop
      vertex 1.75813 -27.9447 2
      vertex -1.75813 -27.9447 2
      vertex 2.38604 -37.925 20
    endloop
  endfacet
  facet normal 0 0.874563 0.484911
    outer loop
      vertex -1.75813 -27.9447 2
      vertex -2.38604 -37.925 20
      vertex 2.38604 -37.925 20
    endloop
  endfacet
  facet normal 0 0 1
    outer loop
      vertex -0 -0 2
      vertex -1.75813 -27.9447 2
      vertex 1.75813 -27.9447 2
    endloop
  endfacet
  facet normal 0 0 -1
    outer loop
      vertex 1.88372 -29.9408 0
      vertex -1.88372 -29.9408 0
      vertex -0 -0 0
    endloop
  endfacet
  facet normal -0 -0.894779 -0.446508
    outer loop
      vertex 2.51162 -39.9211 20
      vertex -2.51162 -39.9211 20
      vertex 1.88372 -29.9408 0
    endloop
  endfacet
  facet normal 0 -0.894779 -0.446508
    outer loop
      vertex -2.51162 -39.9211 20
      vertex -1.88372 -29.9408 0
      vertex 1.88372 -29.9408 0
    endloop
  endfacet
  facet normal 0 0 1
    outer loop
      vertex -2.38604 -37.925 20
      vertex -7.12049 -37.3269 20
      vertex -2.51162 -39.9211 20
    endloop
  endfacet
  facet normal 0 0 1
    outer loop
      vertex -7.12049 -37.3269 20
      vertex -7.49525 -39.2915 20
      vertex -2.51162 -39.9211 20
    endloop
  endfacet
  facet normal 0.10961 0.867667 0.484911
    outer loop
      vertex -1.75813 -27.9447 2
      vertex -5.24668 -27.504 2
      vertex -2.38604 -37.925 20
    endloop
  endfacet
  facet normal 0.109612 0.867667 0.484911
    outer loop
      vertex -5.24668 -27.504 2
      vertex -7.12049 -37.3269 20
      vertex -2.38604 -37.925 20
    endloop
  endfacet
  facet normal 0 0 1
    outer loop
      vertex -0 -0 2
      vertex -5.24668 -27.504 2
      vertex -1.75813 -27.9447 2
    endloop
  endfacet
  facet normal 0 0 -1
    outer loop
      vertex -1.88372 -29.9408 0
      vertex -5.62144 -29.4686 0
      vertex -0 -0 0
    endloop
  endfacet
  facet normal -0.112149 -0.887723 -0.446508
    outer loop
      vertex -2.51162 -39.9211 20
      vertex -7.49525 -39.2915 20
      vertex -1.88372 -29.9408 0
    endloop
  endfacet
  facet normal -0.112149 -0.887723 -0.446508
    outer loop
      vertex -7.49525 -39.2915 20
      vertex -5.62144 -29.4686 0
      vertex -1.88372 -29.9408 0
    endloop
  endfacet
  facet normal 0 0 1
    outer loop
      vertex -7.12049 -37.3269 20
      vertex -11.7426 -36.1401 20
      vertex -7.49525 -39.2915 20
    endloop
  endfacet
  facet normal 0 0 1
    outer loop
      vertex -11.7426 -36.1401 20
      vertex -12.3607 -38.0423 20
      vertex -7.49525 -39.2915 20
    endloop
  endfacet
  facet normal 0.217481 0.847091 0.484911
    outer loop
      vertex -5.24668 -27.504 2
      vertex -8.65248 -26.6296 2
      vertex -7.12049 -37.3269 20
    endloop
  endfacet
  facet normal 0.217503 0.847087 0.484908
    outer loop
      vertex -8.65248 -26.6296 2
      vertex -11.7426 -36.1401 20
      vertex -7.12049 -37.3269 20
    endloop
  endfacet
  facet normal 0 0 1
    outer loop
      vertex -0 -0 2
      vertex -8.65248 -26.6296 2
      vertex -5.24668 -27.504 2
    endloop
  endfacet
  facet normal 0 0 -1
    outer loop
      vertex -5.62144 -29.4686 0
      vertex -9.27051 -28.5317 0
      vertex -0 -0 0
    endloop
  endfacet
  facet normal -0.222517 -0.86667 -0.446508
    outer loop
      vertex -7.49525 -39.2915 20
      vertex -12.3607 -38.0423 20
      vertex -5.62144 -29.4686 0
    endloop
  endfacet
  facet normal -0.222518 -0.86667 -0.446508
    outer loop
      vertex -12.3607 -38.0423 20
      vertex -9.27051 -28.5317 0
      vertex -5.62144 -29.4686 0
    endloop
  endfacet
  facet normal 0 0 1
    outer loop
      vertex -11.7426 -36.1401 20
      vertex -16.1796 -34.3834 20
      vertex -12.3607 -38.0423 20
    endloop
  endfacet
  facet normal 0 0 1
    outer loop
      vertex -16.1796 -34.3834 20
      vertex -17.0312 -36.1931 20
      vertex -12.3607 -38.0423 20
    endloop
  endfacet
  facet normal 0.321946 0.813152 0.484907
    outer loop
      vertex -8.65248 -26.6296 2
      vertex -11.9218 -25.3352 2
      vertex -11.7426 -36.1401 20
    endloop
  endfacet
  facet normal 0.321944 0.813152 0.484908
    outer loop
      vertex -11.9218 -25.3352 2
      vertex -16.1796 -34.3834 20
      vertex -11.7426 -36.1401 20
    endloop
  endfacet
  facet normal 0 0 1
    outer loop
      vertex -0 -0 2
      vertex -11.9218 -25.3352 2
      vertex -8.65248 -26.6296 2
    endloop
  endfacet
  facet normal 0 0 -1
    outer loop
      vertex -9.27051 -28.5317 0
      vertex -12.7734 -27.1448 0
      vertex -0 -0 0
    endloop
  endfacet
  facet normal -0.329393 -0.831944 -0.446509
    outer loop
      vertex -12.3607 -38.0423 20
      vertex -17.0312 -36.1931 20
      vertex -9.27051 -28.5317 0
    endloop
  endfacet
  facet normal -0.329392 -0.831944 -0.446508
    outer loop
      vertex -17.0312 -36.1931 20
      vertex -12.7734 -27.1448 0
      vertex -9.27051 -28.5317 0
    endloop
  endfacet
  facet normal 0 0 1
    outer loop
      vertex -16.1796 -34.3834 20
      vertex -20.3614 -32.0845 20
      vertex -17.0312 -36.1931 20
    endloop
  endfacet
  facet normal 0 0 1
    outer loop
      vertex -20.3614 -32.0845 20
      vertex -21.4331 -33.7731 20
      vertex -17.0312 -36.1931 20
    endloop
  endfacet
  facet normal 0.421333 0.766383 0.484908
    outer loop
      vertex -11.9218 -25.3352 2
      vertex -15.0031 -23.6412 2
      vertex -16.1796 -34.3834 20
    endloop
  endfacet
  facet normal 0.421315 0.766391 0.484911
    outer loop
      vertex -15.0031 -23.6412 2
      vertex -20.3614 -32.0845 20
      vertex -16.1796 -34.3834 20
    endloop
  endfacet
  facet normal 0 0 1
    outer loop
      vertex -0 -0 2
      vertex -15.0031 -23.6412 2
      vertex -11.9218 -25.3352 2
    endloop
  endfacet
  facet normal 0 0 -1
    outer loop
      vertex -12.7734 -27.1448 0
      vertex -16.0748 -25.3298 0
      vertex -0 -0 0
    endloop
  endfacet
  facet normal -0.431068 -0.784099 -0.446508
    outer loop
      vertex -17.0312 -36.1931 20
      vertex -21.4331 -33.7731 20
      vertex -12.7734 -27.1448 0
    endloop
  endfacet
  facet normal -0.431071 -0.784097 -0.446509
    outer loop
      vertex -21.4331 -33.7731 20
      vertex -16.0748 -25.3298 0
      vertex -12.7734 -27.1448 0
    endloop
  endfacet
  facet normal 0 0 1
    outer loop
      vertex -20.3614 -32.0845 20
      vertex -24.2221 -29.2795 20
      vertex -21.4331 -33.7731 20
    endloop
  endfacet
  facet normal 0 0 1
    outer loop
      vertex -24.2221 -29.2795 20
      vertex -25.497 -30.8205 20
      vertex -21.4331 -33.7731 20
    endloop
  endfacet
  facet normal 0.514044 0.707544 0.484912
    outer loop
      vertex -15.0031 -23.6412 2
      vertex -17.8479 -21.5744 2
      vertex -20.3614 -32.0845 20
    endloop
  endfacet
  facet normal 0.514061 0.707535 0.484908
    outer loop
      vertex -17.8479 -21.5744 2
      vertex -24.2221 -29.2795 20
      vertex -20.3614 -32.0845 20
    endloop
  endfacet
  facet normal 0 0 1
    outer loop
      vertex -0 -0 2
      vertex -17.8479 -21.5744 2
      vertex -15.0031 -23.6412 2
    endloop
  endfacet
  facet normal 0 0 -1
    outer loop
      vertex -16.0748 -25.3298 0
      vertex -19.1227 -23.1154 0
      vertex -0 -0 0
    endloop
  endfacet
  facet normal -0.525939 -0.723891 -0.446508
    outer loop
      vertex -21.4331 -33.7731 20
      vertex -25.497 -30.8205 20
      vertex -16.0748 -25.3298 0
    endloop
  endfacet
  facet normal -0.525934 -0.723895 -0.446507
    outer loop
      vertex -25.497 -30.8205 20
      vertex -19.1227 -23.1154 0
      vertex -16.0748 -25.3298 0
    endloop
  endfacet
  facet normal 0 0 1
    outer loop
      vertex -24.2221 -29.2795 20
      vertex -27.7008 -26.0128 20
      vertex -25.497 -30.8205 20
    endloop
  endfacet
  facet normal 0 0 1
    outer loop
      vertex -27.7008 -26.0128 20
      vertex -29.1587 -27.3819 20
      vertex -25.497 -30.8205 20
    endloop
  endfacet
  facet normal 0.598694 0.637519 0.484908
    outer loop
      vertex -17.8479 -21.5744 2
      vertex -20.4111 -19.1673 2
      vertex -24.2221 -29.2795 20
    endloop
  endfacet
  facet normal 0.598678 0.637531 0.484911
    outer loop
      vertex -20.4111 -19.1673 2
      vertex -27.7008 -26.0128 20
      vertex -24.2221 -29.2795 20
    endloop
  endfacet
  facet normal 0 0 1
    outer loop
      vertex -0 -0 2
      vertex -20.4111 -19.1673 2
      vertex -17.8479 -21.5744 2
    endloop
  endfacet
  facet normal 0 0 -1
    outer loop
      vertex -19.1227 -23.1154 0
      vertex -21.8691 -20.5364 0
      vertex -0 -0 0
    endloop
  endfacet
  facet normal -0.612522 -0.652263 -0.446508
    outer loop
      vertex -25.497 -30.8205 20
      vertex -29.1587 -27.3819 20
      vertex -19.1227 -23.1154 0
    endloop
  endfacet
  facet normal -0.612514 -0.652272 -0.446506
    outer loop
      vertex -29.1587 -27.3819 20
      vertex -21.8691 -20.5364 0
      vertex -19.1227 -23.1154 0
    endloop
  endfacet
  facet normal 0 0 1
    outer loop
      vertex -27.7008 -26.0128 20
      vertex -30.7426 -22.3358 20
      vertex -29.1587 -27.3819 20
    endloop
  endfacet
  facet normal 0 0 1
    outer loop
      vertex -30.7426 -22.3358 20
      vertex -32.3607 -23.5114 20
      vertex -29.1587 -27.3819 20
    endloop
  endfacet
  facet normal 0.673854 0.557478 0.484912
    outer loop
      vertex -20.4111 -19.1673 2
      vertex -22.6525 -16.458 2
      vertex -27.7008 -26.0128 20
    endloop
  endfacet
  facet normal 0.673871 0.557461 0.484907
    outer loop
      vertex -22.6525 -16.458 2
      vertex -30.7426 -22.3358 20
      vertex -27.7008 -26.0128 20
    endloop
  endfacet
  facet normal 0 0 1
    outer loop
      vertex -0 -0 2
      vertex -22.6525 -16.458 2
      vertex -20.4111 -19.1673 2
    endloop
  endfacet
  facet normal 0 0 -1
    outer loop
      vertex -21.8691 -20.5364 0
      vertex -24.2705 -17.6336 0
      vertex -0 -0 0
    endloop
  endfacet
  facet normal -0.689437 -0.570359 -0.446506
    outer loop
      vertex -29.1587 -27.3819 20
      vertex -32.3607 -23.5114 20
      vertex -21.8691 -20.5364 0
    endloop
  endfacet
  facet normal -0.689441 -0.570354 -0.446507
    outer loop
      vertex -32.3607 -23.5114 20
      vertex -24.2705 -17.6336 0
      vertex -21.8691 -20.5364 0
    endloop
  endfacet
  facet normal 0 0 1
    outer loop
      vertex -30.7426 -22.3358 20
      vertex -33.2997 -18.3066 20
      vertex -32.3607 -23.5114 20
    endloop
  endfacet
  facet normal 0 0 1
    outer loop
      vertex -33.2997 -18.3066 20
      vertex -35.0523 -19.2701 20
      vertex -32.3607 -23.5114 20
    endloop
  endfacet
  facet normal 0.738423 0.468612 0.484907
    outer loop
      vertex -22.6525 -16.458 2
      vertex -24.5366 -13.4891 2
      vertex -30.7426 -22.3358 20
    endloop
  endfacet
  facet normal 0.738411 0.468627 0.48491
    outer loop
      vertex -24.5366 -13.4891 2
      vertex -33.2997 -18.3066 20
      vertex -30.7426 -22.3358 20
    endloop
  endfacet
  facet normal 0 0 1
    outer loop
      vertex -0 -0 2
      vertex -24.5366 -13.4891 2
      vertex -22.6525 -16.458 2
    endloop
  endfacet
  facet normal 0 0 -1
    outer loop
      vertex -24.2705 -17.6336 0
      vertex -26.2892 -14.4526 0
      vertex -0 -0 0
    endloop
  endfacet
  facet normal -0.755489 -0.479446 -0.446507
    outer loop
      vertex -32.3607 -23.5114 20
      vertex -35.0523 -19.2701 20
      vertex -24.2705 -17.6336 0
    endloop
  endfacet
  facet normal -0.75549 -0.479443 -0.446508
    outer loop
      vertex -35.0523 -19.2701 20
      vertex -26.2892 -14.4526 0
      vertex -24.2705 -17.6336 0
    endloop
  endfacet
  facet normal 0 0 1
    outer loop
      vertex -33.2997 -18.3066 20
      vertex -35.3315 -13.9887 20
      vertex -35.0523 -19.2701 20
    endloop
  endfacet
  facet normal 0 0 1
    outer loop
      vertex -35.3315 -13.9887 20
      vertex -37.1911 -14.725 20
      vertex -35.0523 -19.2701 20
    endloop
  endfacet
  facet normal 0.791334 0.372362 0.48491
    outer loop
      vertex -24.5366 -13.4891 2
      vertex -26.0337 -10.3075 2
      vertex -33.2997 -18.3066 20
    endloop
  endfacet
  facet normal 0.791332 0.372364 0.484911
    outer loop
      vertex -26.0337 -10.3075 2
      vertex -35.3315 -13.9887 20
      vertex -33.2997 -18.3066 20
    endloop
  endfacet
  facet normal 0 0 1
    outer loop
      vertex -0 -0 2
      vertex -26.0337 -10.3075 2
      vertex -24.5366 -13.4891 2
    endloop
  endfacet
  facet normal 0 0 -1
    outer loop
      vertex -26.2892 -14.4526 0
      vertex -27.8933 -11.0437 0
      vertex -0 -0 0
    endloop
  endfacet
  facet normal -0.809618 -0.380984 -0.446508
    outer loop
      vertex -35.0523 -19.2701 20
      vertex -37.1911 -14.725 20
      vertex -26.2892 -14.4526 0
    endloop
  endfacet
  facet normal -0.809621 -0.380977 -0.446509
    outer loop
      vertex -37.1911 -14.725 20
      vertex -27.8933 -11.0437 0
      vertex -26.2892 -14.4526 0
    endloop
  endfacet
  facet normal 0 0 1
    outer loop
      vertex -35.3315 -13.9887 20
      vertex -36.8062 -9.45022 20
      vertex -37.1911 -14.725 20
    endloop
  endfacet
  facet normal 0 0 1
    outer loop
      vertex -36.8062 -9.45022 20
      vertex -38.7433 -9.9476 20
      vertex -37.1911 -14.725 20
    endloop
  endfacet
  facet normal 0.831759 0.270257 0.484911
    outer loop
      vertex -26.0337 -10.3075 2
      vertex -27.1203 -6.96332 2
      vertex -35.3315 -13.9887 20
    endloop
  endfacet
  facet normal 0.831755 0.270264 0.484912
    outer loop
      vertex -27.1203 -6.96332 2
      vertex -36.8062 -9.45022 20
      vertex -35.3315 -13.9887 20
    endloop
  endfacet
  facet normal 0 0 1
    outer loop
      vertex -0 -0 2
      vertex -27.1203 -6.96332 2
      vertex -26.0337 -10.3075 2
    endloop
  endfacet
  facet normal 0 0 -1
    outer loop
      vertex -27.8933 -11.0437 0
      vertex -29.0575 -7.4607 0
      vertex -0 -0 0
    endloop
  endfacet
  facet normal -0.850989 -0.276491 -0.446509
    outer loop
      vertex -37.1911 -14.725 20
      vertex -38.7433 -9.9476 20
      vertex -27.8933 -11.0437 0
    endloop
  endfacet
  facet normal -0.850986 -0.276505 -0.446506
    outer loop
      vertex -38.7433 -9.9476 20
      vertex -29.0575 -7.4607 0
      vertex -27.8933 -11.0437 0
    endloop
  endfacet
  facet normal 0 0 1
    outer loop
      vertex -36.8062 -9.45022 20
      vertex -37.7004 -4.76266 20
      vertex -38.7433 -9.9476 20
    endloop
  endfacet
  facet normal 0 0 1
    outer loop
      vertex -37.7004 -4.76266 20
      vertex -39.6846 -5.01333 20
      vertex -38.7433 -9.9476 20
    endloop
  endfacet
  facet normal 0.859071 0.163881 0.484913
    outer loop
      vertex -27.1203 -6.96332 2
      vertex -27.7792 -3.50933 2
      vertex -36.8062 -9.45022 20
    endloop
  endfacet
  facet normal 0.859072 0.163877 0.484912
    outer loop
      vertex -27.7792 -3.50933 2
      vertex -37.7004 -4.76266 20
      vertex -36.8062 -9.45022 20
    endloop
  endfacet
  facet normal 0 0 1
    outer loop
      vertex -0 -0 2
      vertex -27.7792 -3.50933 2
      vertex -27.1203 -6.96332 2
    endloop
  endfacet
  facet normal 0 0 -1
    outer loop
      vertex -29.0575 -7.4607 0
      vertex -29.7634 -3.76 0
      vertex -0 -0 0
    endloop
  endfacet
  facet normal -0.87893 -0.167672 -0.446506
    outer loop
      vertex -38.7433 -9.9476 20
      vertex -39.6846 -5.01333 20
      vertex -29.0575 -7.4607 0
    endloop
  endfacet
  facet normal -0.878932 -0.167654 -0.446509
    outer loop
      vertex -39.6846 -5.01333 20
      vertex -29.7634 -3.76 0
      vertex -29.0575 -7.4607 0
    endloop
  endfacet
  facet normal 0 0 1
    outer loop
      vertex -37.7004 -4.76266 20
      vertex -38 -0 20
      vertex -39.6846 -5.01333 20
    endloop
  endfacet
  facet normal 0 0 1
    outer loop
      vertex -38 -0 20
      vertex -40 -0 20
      vertex -39.6846 -5.01333 20
    endloop
  endfacet
  facet normal 0.872837 0.0549171 0.484912
    outer loop
      vertex -27.7792 -3.50933 2
      vertex -28 -0 2
      vertex -37.7004 -4.76266 20
    endloop
  endfacet
  facet normal 0.872839 0.0549068 0.48491
    outer loop
      vertex -28 -0 2
      vertex -38 -0 20
      vertex -37.7004 -4.76266 20
    endloop
  endfacet
  facet normal 0 0 1
    outer loop
      vertex -0 -0 2
      vertex -28 -0 2
      vertex -27.7792 -3.50933 2
    endloop
  endfacet
  facet normal 0 0 -1
    outer loop
      vertex -29.7634 -3.76 0
      vertex -30 -0 0
      vertex -0 -0 0
    endloop
  endfacet
  facet normal -0.893014 -0.0561815 -0.446509
    outer loop
      vertex -39.6846 -5.01333 20
      vertex -40 -0 20
      vertex -29.7634 -3.76 0
    endloop
  endfacet
  facet normal -0.893014 -0.0561934 -0.446507
    outer loop
      vertex -40 -0 20
      vertex -30 -0 0
      vertex -29.7634 -3.76 0
    endloop
  endfacet
endsolid OpenSCAD_Model
