solid OpenSCAD_Model
  facet normal 0 0 -1
    outer loop
      vertex 0 0 0
      vertex 10 20 0
      vertex 20 0 0
    endloop
  endfacet
  facet normal 0 0 1
    outer loop
      vertex 20 0 15
      vertex 10 20 15
      vertex 0 0 15
    endloop
  endfacet
  facet normal -0.894427 0.447214 0
    outer loop
      vertex 0 0 0
      vertex 10 20 15
      vertex 10 20 0
    endloop
  endfacet
  facet normal -0.894427 0.447214 0
    outer loop
      vertex 0 0 0
      vertex 0 0 15
      vertex 10 20 15
    endloop
  endfacet
  facet normal 0 -1 0
    outer loop
      vertex 20 0 0
      vertex 0 0 15
      vertex 0 0 0
    endloop
  endfacet
  facet normal 0 -1 0
    outer loop
      vertex 20 0 0
      vertex 20 0 15
      vertex 0 0 15
    endloop
  endfacet
  facet normal 0.894427 0.447214 0
    outer loop
      vertex 10 20 0
      vertex 20 0 15
      vertex 20 0 0
    endloop
  endfacet
  facet normal 0.894427 0.447214 -0
    outer loop
      vertex 10 20 0
      vertex 10 20 15
      vertex 20 0 15
    endloop
  endfacet
endsolid OpenSCAD_Model
