{
  "scene": 0,
  "scenes": [
    {
      "nodes": [
        0
      ]
    }
  ],
  "asset": {
    "version": "2.0",
    "generator": "https://github.com/mikedh/trimesh"
  },
  "accessors": [
    {
      "componentType": 5125,
      "type": "SCALAR",
      "bufferView": 0,
      "count": 96,
      "max": [
        15
      ],
      "min": [
        0
      ]
    },
    {
      "componentType": 5126,
      "type": "VEC3",
      "byteOffset": 0,
      "bufferView": 1,
      "count": 16,
      "max": [
        5000.0,
        4000.0,
        3000.0
      ],
      "min": [
        0.0,
        0.0,
        0.0
      ]
    }
  ],
  "meshes": [
    {
      "name": "geometry_0",
      "extras": {
        "processed": true
      },
      "primitives": [
        {
          "attributes": {
            "POSITION": 1
          },
          "indices": 0,
          "mode": 4,
          "material": 0
        }
      ]
    }
  ],
  "nodes": [
    {
      "name": "world",
      "children": [
        1
      ]
    },
    {
      "name": "geometry_0",
      "mesh": 0
    }
  ],
  "buffers": [
    {
      "uri": "gltf_buffer_0.bin",
      "byteLength": 384
    },
    {
      "uri": "gltf_buffer_1.bin",
      "byteLength": 192
    }
  ],
  "bufferViews": [
    {
      "buffer": 0,
      "byteOffset": 0,
      "byteLength": 384
    },
    {
      "buffer": 1,
      "byteOffset": 0,
      "byteLength": 192
    }
  ],
  "materials": [
    {
      "name": "glass",
      "pbrMetallicRoughness": {
        "baseColorFactor": [
          0.8,
          0.9,
          1.0,
          0.09999999999999998
        ],
        "metallicFactor": 0.0,
        "roughnessFactor": 0.1
      },
      "alphaMode": "BLEND",
      "doubleSided": true
    }
  ]
}